<mxfile host="app.diagrams.net" modified="2023-07-14T10:52:19.311Z" agent="Mozilla/5.0 (Windows NT 10.0; Win64; x64) AppleWebKit/537.36 (KHTML, like Gecko) Chrome/114.0.0.0 Safari/537.36 Edg/114.0.1823.79" etag="6y-VKpOvILAWqZitpYWq" version="21.6.2" type="github">
  <diagram name="第 1 页" id="bqhf0KEbIHW4SL8Zh_qV">
    <mxGraphModel dx="1177" dy="1106" grid="1" gridSize="10" guides="1" tooltips="1" connect="1" arrows="1" fold="1" page="1" pageScale="1" pageWidth="827" pageHeight="1169" math="0" shadow="0">
      <root>
        <mxCell id="0" />
        <mxCell id="1" parent="0" />
        <mxCell id="v74h3zlOdPNo6SPyDFYH-1" value="" style="rounded=1;whiteSpace=wrap;html=1;" parent="1" vertex="1">
          <mxGeometry x="80" y="210" width="240" height="280" as="geometry" />
        </mxCell>
        <mxCell id="tx-cmQKEAs1NcMRFSA0i-10" style="edgeStyle=orthogonalEdgeStyle;curved=1;rounded=0;orthogonalLoop=1;jettySize=auto;html=1;exitX=0.5;exitY=0;exitDx=0;exitDy=0;entryX=0.625;entryY=0.2;entryDx=0;entryDy=0;entryPerimeter=0;" edge="1" parent="1" source="tx-cmQKEAs1NcMRFSA0i-1" target="tx-cmQKEAs1NcMRFSA0i-8">
          <mxGeometry relative="1" as="geometry">
            <Array as="points">
              <mxPoint x="260" y="290" />
              <mxPoint x="555" y="290" />
            </Array>
          </mxGeometry>
        </mxCell>
        <mxCell id="tx-cmQKEAs1NcMRFSA0i-11" value="搜索" style="edgeLabel;html=1;align=center;verticalAlign=middle;resizable=0;points=[];" vertex="1" connectable="0" parent="tx-cmQKEAs1NcMRFSA0i-10">
          <mxGeometry x="0.0487" y="-3" relative="1" as="geometry">
            <mxPoint as="offset" />
          </mxGeometry>
        </mxCell>
        <mxCell id="tx-cmQKEAs1NcMRFSA0i-1" value="语言大模型&lt;br&gt;(LLM)" style="rounded=0;whiteSpace=wrap;html=1;" vertex="1" parent="1">
          <mxGeometry x="220" y="350" width="80" height="55" as="geometry" />
        </mxCell>
        <mxCell id="tx-cmQKEAs1NcMRFSA0i-7" style="edgeStyle=orthogonalEdgeStyle;rounded=0;orthogonalLoop=1;jettySize=auto;html=1;exitX=0;exitY=0;exitDx=60;exitDy=47.5;exitPerimeter=0;entryX=0;entryY=0.5;entryDx=0;entryDy=0;" edge="1" parent="1" target="tx-cmQKEAs1NcMRFSA0i-1">
          <mxGeometry relative="1" as="geometry">
            <mxPoint x="170" y="377.5" as="sourcePoint" />
          </mxGeometry>
        </mxCell>
        <mxCell id="tx-cmQKEAs1NcMRFSA0i-12" style="edgeStyle=orthogonalEdgeStyle;curved=1;rounded=0;orthogonalLoop=1;jettySize=auto;html=1;exitX=0.55;exitY=0.95;exitDx=0;exitDy=0;exitPerimeter=0;entryX=0.5;entryY=1;entryDx=0;entryDy=0;" edge="1" parent="1" source="tx-cmQKEAs1NcMRFSA0i-8" target="tx-cmQKEAs1NcMRFSA0i-1">
          <mxGeometry relative="1" as="geometry">
            <Array as="points">
              <mxPoint x="546" y="450" />
              <mxPoint x="260" y="450" />
            </Array>
          </mxGeometry>
        </mxCell>
        <mxCell id="tx-cmQKEAs1NcMRFSA0i-13" value="信息" style="edgeLabel;html=1;align=center;verticalAlign=middle;resizable=0;points=[];" vertex="1" connectable="0" parent="tx-cmQKEAs1NcMRFSA0i-12">
          <mxGeometry x="-0.1733" relative="1" as="geometry">
            <mxPoint as="offset" />
          </mxGeometry>
        </mxCell>
        <mxCell id="tx-cmQKEAs1NcMRFSA0i-8" value="数字世界" style="ellipse;shape=cloud;whiteSpace=wrap;html=1;" vertex="1" parent="1">
          <mxGeometry x="480" y="330" width="120" height="80" as="geometry" />
        </mxCell>
        <mxCell id="tx-cmQKEAs1NcMRFSA0i-14" value="记忆单元" style="shape=cylinder3;whiteSpace=wrap;html=1;boundedLbl=1;backgroundOutline=1;size=15;" vertex="1" parent="1">
          <mxGeometry x="110" y="338" width="60" height="80" as="geometry" />
        </mxCell>
        <mxCell id="tx-cmQKEAs1NcMRFSA0i-24" value="专家" style="verticalLabelPosition=bottom;html=1;verticalAlign=top;align=center;strokeColor=none;fillColor=#00BEF2;shape=mxgraph.azure.user;" vertex="1" parent="1">
          <mxGeometry x="100" y="220" width="37.5" height="40" as="geometry" />
        </mxCell>
      </root>
    </mxGraphModel>
  </diagram>
</mxfile>
